<svg width="633" height="554" viewBox="0 0 633 554" fill="none" xmlns="http://www.w3.org/2000/svg"><path d="M20 534H0c0 11.046 8.954 20 20 20v-20zm0-514V0C8.954 0 0 8.954 0 20h20zm593 0h20c0-11.046-8.954-20-20-20v20zM375.8 514H20v40h355.8v-40zM40 534V20H0v514h40zM20 40h593V0H20v40zm573-20v336.077h40V20h-40zM20 158.615h593v-40H20v40zm59.3-59.312h39.533v-40H79.3v40zm79.066 0H197.9v-40h-39.534v40zm282.357 310.451l118.6 118.616 28.286-28.283-118.6-118.615-28.286 28.282zm118.6-28.282l-118.6 118.615 28.286 28.283 118.6-118.616-28.286-28.282z" fill="#fff"/></svg>