<svg width="471" height="628" viewBox="0 0 471 628" fill="none" xmlns="http://www.w3.org/2000/svg"><path fill-rule="evenodd" clip-rule="evenodd" d="M471 575.667h-26.167c0-154.384-149.15-179.242-196.25-261.667 45.792-82.425 196.25-107.283 196.25-261.667H471V0H0v52.333h26.167c0 154.384 149.15 179.242 196.25 261.667-45.792 82.425-196.25 107.283-196.25 261.667H0V628h471v-52.333zM78.5 52.333h314c0 130.834-157 157-157 209.334 0-52.334-157-78.5-157-209.334zm0 523.334c0-130.834 157-157 157-209.334 0 52.334 157 78.5 157 209.334h-314z" fill="#fff"/></svg>