<svg width="113" height="150" viewBox="0 0 113 150" fill="none" xmlns="http://www.w3.org/2000/svg"><path fill-rule="evenodd" clip-rule="evenodd" d="M112.833 137.5h-6.25c0-36.875-35.625-42.813-46.875-62.5 10.938-19.688 46.875-25.625 46.875-62.5h6.25V0H.333v12.5h6.25c0 36.875 35.625 42.813 46.875 62.5-10.937 19.688-46.875 25.625-46.875 62.5H.333V150h112.5v-12.5zm-93.75-125h75c0 31.25-37.5 37.5-37.5 50 0-12.5-37.5-18.75-37.5-50zm0 125c0-31.25 37.5-37.5 37.5-50 0 12.5 37.5 18.75 37.5 50h-75z" fill="#56CCF2"/><path d="M19.208 116.625l-1.125 24.75c26.125-.375 78.525-1.05 79.125-.75.6.3-1.5-14.375-2.625-21.75l-12.375-11.25H30.083l-10.875 9z" fill="#56CCF2"/></svg>