<svg xmlns="http://www.w3.org/2000/svg" width="48" height="32" viewBox="0 0 48 32"><defs><style>.cls-1{fill:#fff;fill-rule:evenodd}</style></defs><path id="Icon_Group" data-name="Icon Group" class="cls-1" d="M1054 368a3.579 3.579 0 0 0-2.03-3.02c-1.06-.527-3.68-1.839-5.97-2.986l.38-1.142a2.966 2.966 0 0 1-1.37-2.133l-.32-2.59a3.387 3.387 0 1 1 6.61 0l-.32 2.59a2.954 2.954 0 0 1-1.36 2.133l.51 1.544c1.63.815 3.73 1.864 4.51 2.257a2.389 2.389 0 0 1 1.36 2.014V368h-2zm-11.52-9.921a4.454 4.454 0 0 1-2.05 3.2l.77 2.317c2.44 1.223 5.59 2.795 6.77 3.386A3.587 3.587 0 0 1 1050 370v2h-6v-.666a4.782 4.782 0 0 0-2.71-4.028l-6.95-3.48c.15-.077.31-.157.46-.232l.77-2.318a4.425 4.425 0 0 1-2.05-3.2l-.48-3.886c-.39-3.2 1.79-6.192 4.95-6.192s5.34 2.991 4.96 6.192zm-12.51-.641a5.89 5.89 0 0 1-2.73 4.265l1.03 3.089c3.26 1.63 7.45 3.727 9.02 4.515a4.781 4.781 0 0 1 2.71 4.028V376h-32v-2.667a5.189 5.189 0 0 1 2.76-4.054c1.49-.743 5.7-2.848 8.97-4.487l1.03-3.091a5.931 5.931 0 0 1-2.74-4.265l-.63-5.182c-.53-4.267 2.39-8.255 6.59-8.255s7.13 3.988 6.61 8.255z" transform="translate(-1008 -344)"/></svg>