<svg xmlns="http://www.w3.org/2000/svg" width="48" height="24" viewBox="0 0 48 24"><defs><style>.cls-1{fill:#fff;fill-rule:evenodd}</style></defs><path id="Icon_Gamepad" data-name="Icon Gamepad" class="cls-1" d="M754 660a11.954 11.954 0 0 1-8.926-4h-6.148A11.994 11.994 0 1 1 730 636h24a12 12 0 0 1 0 24zm-18-14h-4v-4a2 2 0 0 0-4 0v4h-4a2 2 0 0 0 0 4h4v4a2 2 0 0 0 4 0v-4h4a2 2 0 0 0 0-4zm12 0a2 2 0 1 0 2 2 2 2 0 0 0-2-2zm6-6a2 2 0 1 0 2 2 2 2 0 0 0-2-2zm0 12a2 2 0 1 0 2 2 2 2 0 0 0-2-2zm6-6a2 2 0 1 0 2 2 2 2 0 0 0-2-2z" transform="translate(-718 -636)"/></svg>