<svg xmlns="http://www.w3.org/2000/svg" width="48" height="48" viewBox="0 0 48 48"><defs><style>.cls-1{fill:#fff;fill-rule:evenodd}</style></defs><path id="Icon_Chat" data-name="Icon Chat" class="cls-1" d="M1436.18 565.052L1438 576l-8.58-6.863a17.93 17.93 0 0 1-5.42.841c-8.84 0-16-6.263-16-13.989S1415.16 542 1424 542s16 6.263 16 13.989a12.942 12.942 0 0 1-3.82 9.063zM1424 545.981c-6.64 0-12.02 4.481-12.02 10.009S1417.36 566 1424 566a14.067 14.067 0 0 0 4.86-.858L1434 569l-1.49-5.945a9.215 9.215 0 0 0 3.51-7.065c0-5.528-5.38-10.009-12.02-10.009zM1414 532c-9.94 0-18 6.268-18 14 0 4.3 2.5 8.148 6.43 10.717L1400 564l4.75-3.167a16.891 16.891 0 0 0 1.59 3.608L1392 574l5.75-15.325a16.715 16.715 0 0 1-5.75-12.331c0-10.131 9.85-18.344 22-18.344 9.92 0 18.3 5.476 21.04 13a20.919 20.919 0 0 0-5.73-2.338c-3.17-3.993-8.83-6.662-15.31-6.662z" transform="translate(-1392 -528)"/></svg>