<svg xmlns="http://www.w3.org/2000/svg" width="481" height="143" viewBox="0 0 481 143"><defs><style>.cls-1{fill:#fff;fill-rule:evenodd;filter:url(#filter)}</style><filter id="filter" x="719" y="168" width="481" height="143" filterUnits="userSpaceOnUse"><feGaussianBlur result="blur" stdDeviation="11.667" in="SourceAlpha"/><feComposite result="composite"/><feComposite result="composite-2"/><feComposite result="composite-3"/><feFlood result="flood" flood-color="#fff" flood-opacity=".1"/><feComposite result="composite-4" operator="in" in2="composite-3"/><feBlend result="blend" mode="screen" in2="SourceGraphic"/><feBlend result="blend-2" in="SourceGraphic"/></filter></defs><path id="_-e-Penopl_logo" data-name="-e-Penopl_logo" class="cls-1" d="M782.781 205.258h-21.914a5.73 5.73 0 0 0-5.867 5.835v55.3a5.912 5.912 0 0 0 1.538 4.162 5.1 5.1 0 0 0 3.94 1.674 5.3 5.3 0 0 0 4.037-1.627 5.88 5.88 0 0 0 1.538-4.209v-18.084h16.724a16.644 16.644 0 0 0 9.323-2.918 21.509 21.509 0 0 0 7.112-7.893 22.766 22.766 0 0 0 0-21.478 21.643 21.643 0 0 0-7.112-7.844 16.66 16.66 0 0 0-9.323-2.918zm0 32.144h-16.724V216.26h16.724a5.626 5.626 0 0 1 3.605 1.482 10.848 10.848 0 0 1 2.883 3.923 12.415 12.415 0 0 1 0 10.236 11.3 11.3 0 0 1-2.883 3.971 5.527 5.527 0 0 1-3.605 1.53zM942.5 205.258a5.072 5.072 0 0 0-3.8 1.531 5.267 5.267 0 0 0-1.489 3.825v41.138l-34.987-44.39a4.575 4.575 0 0 0-2.066-1.53 7.367 7.367 0 0 0-2.836-.574 5.733 5.733 0 0 0-5.863 5.835v55.776a5.363 5.363 0 0 0 1.441 3.831 4.915 4.915 0 0 0 3.749 1.531 5.192 5.192 0 0 0 3.893-1.531 5.266 5.266 0 0 0 1.489-3.826v-40.856l35.275 44.582a3.726 3.726 0 0 0 1.874 1.2 8.365 8.365 0 0 0 2.643.43 5.733 5.733 0 0 0 5.863-5.836v-55.78a5.364 5.364 0 0 0-1.442-3.825 4.915 4.915 0 0 0-3.748-1.531zm137.914 0H1058.5a5.682 5.682 0 0 0-4.18 1.673 5.612 5.612 0 0 0-1.69 4.162v55.3a5.941 5.941 0 0 0 1.54 4.162 5.117 5.117 0 0 0 3.94 1.674 5.305 5.305 0 0 0 4.04-1.627 5.9 5.9 0 0 0 1.54-4.209v-18.084h16.72a16.609 16.609 0 0 0 9.32-2.918 21.555 21.555 0 0 0 7.12-7.893 22.781 22.781 0 0 0 0-21.478 21.689 21.689 0 0 0-7.12-7.844 16.624 16.624 0 0 0-9.32-2.918zm0 32.144h-16.72V216.26h16.72a5.636 5.636 0 0 1 3.61 1.482 10.912 10.912 0 0 1 2.88 3.923 12.354 12.354 0 0 1 0 10.236 11.367 11.367 0 0 1-2.88 3.971 5.537 5.537 0 0 1-3.61 1.53zm76.73 23.631h-25.09v-49.94a5.535 5.535 0 0 0-1.73-4.162 5.73 5.73 0 0 0-4.13-1.673 6.1 6.1 0 0 0-4.42 1.673 5.571 5.571 0 0 0-1.73 4.162v55.3a5.73 5.73 0 0 0 5.86 5.836h31.24a5.881 5.881 0 0 0 4.18-1.578 5.219 5.219 0 0 0 1.68-3.971 5.328 5.328 0 0 0-1.68-4.065 5.878 5.878 0 0 0-4.18-1.579zM822.5 204.779h44.65c2.786 0 4.706 2.883 4.7 5.711-.006 2.987-1.915 5.712-4.7 5.712H822.5c-3.465 0-5.449-2.14-5.484-5.712.028-3.641 2.436-5.711 5.484-5.711zm176.466 12.084c9.475-.245 10-12.668.242-12.863-21.715 0-33.735 18.155-33.735 34.933.3 18.1 12.8 34.591 33.01 35.067 22.968-.3 33.008-20.952 33.008-35a39.282 39.282 0 0 0-4.37-17.573c-6.93-9.9-15.69-.522-12.11 5 2.98 4.585 3.31 9.015 3.56 12.252-.05 13-9.14 22.466-20.088 22.466-10.943-.178-20.183-9.823-20.093-22.144s9.179-21.907 20.575-22.138zM822.5 260.344h44.65c2.786 0 4.706 2.883 4.7 5.711-.006 2.987-1.915 5.713-4.7 5.713H822.5c-3.465 0-5.449-2.141-5.484-5.713.028-3.641 2.436-5.711 5.484-5.711zm0-27.783h44.65c2.786 0 4.706 2.883 4.7 5.712-.006 2.986-1.915 5.713-4.7 5.713H822.5c-3.465 0-5.449-2.141-5.484-5.713.028-3.642 2.436-5.712 5.484-5.712z" transform="translate(-719 -168)"/></svg>