<svg xmlns="http://www.w3.org/2000/svg" width="154" height="89" viewBox="0 0 154 89"><defs><style>.cls-1{fill:#fff;fill-rule:evenodd;filter:url(#filter)}</style><filter id="filter" x="480" y="1607" width="154" height="89" filterUnits="userSpaceOnUse"><feGaussianBlur result="blur" stdDeviation="10" in="SourceAlpha"/><feComposite result="composite"/><feComposite result="composite-2"/><feComposite result="composite-3"/><feFlood result="flood" flood-color="#fff" flood-opacity=".4"/><feComposite result="composite-4" operator="in" in2="composite-3"/><feBlend result="blend" in2="SourceGraphic"/><feBlend result="blend-2" in="SourceGraphic"/></filter></defs><path id="Icon_Star_Full" data-name="Icon Star Full" class="cls-1" d="M524 1635.99l4.64 9.88 10.363 1.59-7.5 7.68 1.767 10.86-9.268-5.13-9.277 5.13 1.775-10.86-7.5-7.68 10.371-1.59zm33 0l4.64 9.88 10.363 1.59-7.5 7.68 1.767 10.86-9.268-5.13-9.277 5.13 1.775-10.86-7.5-7.68 10.371-1.59zm32 0l4.64 9.88 10.363 1.59-7.5 7.68 1.767 10.86-9.268-5.13-9.277 5.13 1.775-10.86-7.5-7.68 10.371-1.59z" transform="translate(-480 -1607)"/></svg>