<svg xmlns="http://www.w3.org/2000/svg" width="185" height="83" viewBox="0 0 185 83"><defs><style>.cls-1{fill:#fff;fill-rule:evenodd;filter:url(#filter)}</style><filter id="filter" x="1290" y="1613" width="185" height="83" filterUnits="userSpaceOnUse"><feGaussianBlur result="blur" stdDeviation="10" in="SourceAlpha"/><feComposite result="composite"/><feComposite result="composite-2"/><feComposite result="composite-3"/><feFlood result="flood" flood-color="#fff" flood-opacity=".4"/><feComposite result="composite-4" operator="in" in2="composite-3"/><feBlend result="blend" in2="SourceGraphic"/><feBlend result="blend-2" in="SourceGraphic"/></filter></defs><path id="_50_000_ла" data-name="50 000 ла" class="cls-1" d="M1323.64 1655.42l.43-.4a3.9 3.9 0 0 1 2.58-.83 3.459 3.459 0 0 1 2.67 1.02 4.145 4.145 0 0 1 .94 2.93 5.085 5.085 0 0 1-.81 3.08 2.773 2.773 0 0 1-2.33 1.09 3.1 3.1 0 0 1-2.2-.78 3.252 3.252 0 0 1-.98-2.19h-4.42a6.316 6.316 0 0 0 1.07 3.41 6.776 6.776 0 0 0 2.76 2.33 8.706 8.706 0 0 0 3.78.82 8.127 8.127 0 0 0 4.04-.95 6.469 6.469 0 0 0 2.64-2.67 8.123 8.123 0 0 0 .91-3.89 7.947 7.947 0 0 0-1.82-5.58 6.493 6.493 0 0 0-5.03-1.99 7.152 7.152 0 0 0-3.38.85l.56-4.83h8.93v-3.72h-12.59l-1.3 11.42zm29.33-3.25c-.04-3.02-.7-5.33-2-6.94a7.714 7.714 0 0 0-11.24.02q-1.95 2.445-1.95 7.15v4.13c.03 3.02.69 5.33 1.99 6.95a6.8 6.8 0 0 0 5.62 2.42 6.731 6.731 0 0 0 5.65-2.47c1.28-1.64 1.93-4.02 1.93-7.13v-4.13zm-4.47 4.93a8.528 8.528 0 0 1-.75 3.93 2.517 2.517 0 0 1-2.36 1.28 2.554 2.554 0 0 1-2.4-1.34 8.6 8.6 0 0 1-.75-4.08v-5.46a7.652 7.652 0 0 1 .79-3.79 2.551 2.551 0 0 1 2.33-1.22 2.579 2.579 0 0 1 2.38 1.28 8.192 8.192 0 0 1 .76 4.06v5.34zm30.77-4.93c-.03-3.02-.7-5.33-1.99-6.94a7.725 7.725 0 0 0-11.25.02q-1.95 2.445-1.95 7.15v4.13c.03 3.02.69 5.33 1.99 6.95a6.8 6.8 0 0 0 5.62 2.42 6.731 6.731 0 0 0 5.65-2.47c1.28-1.64 1.93-4.02 1.93-7.13v-4.13zm-4.46 4.93a8.51 8.51 0 0 1-.76 3.93 2.507 2.507 0 0 1-2.36 1.28 2.554 2.554 0 0 1-2.4-1.34 8.6 8.6 0 0 1-.75-4.08v-5.46a7.764 7.764 0 0 1 .79-3.79 2.551 2.551 0 0 1 2.33-1.22 2.579 2.579 0 0 1 2.38 1.28 8.175 8.175 0 0 1 .77 4.06v5.34zm22.87-4.93c-.03-3.02-.7-5.33-1.99-6.94a7.725 7.725 0 0 0-11.25.02q-1.95 2.445-1.95 7.15v4.13c.03 3.02.7 5.33 1.99 6.95a6.8 6.8 0 0 0 5.62 2.42 6.731 6.731 0 0 0 5.65-2.47c1.28-1.64 1.93-4.02 1.93-7.13v-4.13zm-4.46 4.93a8.51 8.51 0 0 1-.76 3.93 2.507 2.507 0 0 1-2.36 1.28 2.554 2.554 0 0 1-2.4-1.34 8.6 8.6 0 0 1-.75-4.08v-5.46a7.638 7.638 0 0 1 .8-3.79 2.524 2.524 0 0 1 2.32-1.22 2.579 2.579 0 0 1 2.38 1.28 8.175 8.175 0 0 1 .77 4.06v5.34zm22.87-4.93c-.03-3.02-.7-5.33-1.99-6.94a7.725 7.725 0 0 0-11.25.02q-1.95 2.445-1.95 7.15v4.13c.03 3.02.7 5.33 1.99 6.95a6.8 6.8 0 0 0 5.62 2.42 6.731 6.731 0 0 0 5.65-2.47q1.935-2.46 1.93-7.13v-4.13zm-4.46 4.93a8.383 8.383 0 0 1-.76 3.93 2.507 2.507 0 0 1-2.36 1.28 2.554 2.554 0 0 1-2.4-1.34 8.6 8.6 0 0 1-.75-4.08v-5.46a7.638 7.638 0 0 1 .8-3.79 2.534 2.534 0 0 1 2.32-1.22 2.569 2.569 0 0 1 2.38 1.28 8.175 8.175 0 0 1 .77 4.06v5.34zm24.8.58a9.422 9.422 0 0 0 6.26-1.91 6.447 6.447 0 0 0 2.26-5.21 7.333 7.333 0 0 0-1.03-3.88 6.777 6.777 0 0 0-2.96-2.63 10.083 10.083 0 0 0-4.45-.93h-8.77v22.47h4.63v-7.91h4.06zm-4.06-10.81h4.25a3.6 3.6 0 0 1 2.68 1.05 3.707 3.707 0 0 1 .98 2.67 3.164 3.164 0 0 1-.97 2.47 4.048 4.048 0 0 1-2.8.87h-4.14v-7.06z" transform="translate(-1290 -1613)"/></svg>