<svg width="24" height="17" viewBox="0 0 24 17" fill="none" xmlns="http://www.w3.org/2000/svg"><path fill-rule="evenodd" clip-rule="evenodd" d="M22 0H2C.9 0 0 .912 0 2.027v12.162c0 1.115.9 2.027 2 2.027h20c1.1 0 2-.912 2-2.027V2.027C24 .912 23.1 0 22 0zm0 13.936c0 .152-.1.253-.25.253H2.25c-.15 0-.25-.101-.25-.253V8.108h20v5.828zm0-9.882H2V2.28c0-.152.1-.253.25-.253h19.5c.15 0 .25.101.25.253v1.774zm-7 8.108h4c.55 0 1-.456 1-1.013a1.01 1.01 0 0 0-1-1.014h-4c-.55 0-1 .456-1 1.014 0 .557.45 1.013 1 1.013z" fill="#fff"/></svg>