<svg width="678" height="688" viewBox="0 0 678 688" fill="none" xmlns="http://www.w3.org/2000/svg"><path d="M338.779 49.143c-11.806 0-21.944 4.223-30.413 12.67-8.47 8.446-12.704 18.556-12.704 30.33V344h-12.32V141.286c0-11.774-4.234-21.884-12.704-30.331-8.469-8.446-18.607-12.67-30.413-12.67-11.806 0-21.944 4.224-30.413 12.67-8.469 8.447-12.704 18.557-12.704 30.331v301l-59.287-78.706C128.069 350.527 114.98 344 98.554 344c-13.603 0-25.216 4.799-34.84 14.397-9.625 9.599-14.437 21.18-14.437 34.746 0 11.006 3.336 20.86 10.01 29.562l147.83 196.572c9.753 13.053 22.842 19.58 39.268 19.58h264.863c8.726 0 16.554-2.815 23.484-8.446 6.929-5.631 11.293-12.798 13.089-21.5l29.258-155.491c1.284-8.191 1.925-15.741 1.925-22.652V239.571c0-11.773-4.235-21.883-12.704-30.33-8.469-8.446-18.607-12.67-30.413-12.67-11.806 0-21.944 4.224-30.413 12.67-8.47 8.447-12.704 18.557-12.704 30.33V344h-12.32V141.286c0-11.774-4.234-21.884-12.704-30.331-8.469-8.446-18.607-12.67-30.413-12.67-11.806 0-21.944 4.224-30.413 12.67-8.47 8.447-12.704 18.557-12.704 30.331V344h-12.32V92.143c0-11.774-4.234-21.884-12.704-30.33-8.469-8.447-18.607-12.67-30.413-12.67zm0-49.143c17.452 0 33.557 4.543 48.315 13.63 14.757 9.086 26.114 21.435 34.07 37.049 4.876-1.024 10.266-1.536 16.169-1.536 25.408 0 47.16 9.022 65.253 27.067 18.094 18.044 27.141 39.736 27.141 65.076v6.526c26.949-1.535 50.111 6.655 69.488 24.572 19.378 17.917 29.066 40.312 29.066 67.187v191.197c0 10.238-1.026 20.86-3.08 31.866l-29.258 155.107c-3.593 20.22-13.41 36.985-29.451 50.295C550.452 681.345 532.037 688 511.248 688H246.385c-15.399 0-30.093-3.519-44.08-10.558-13.987-7.039-25.601-16.573-34.84-28.603L19.634 452.268C6.544 434.863 0 415.155 0 393.143c0-27.131 9.624-50.295 28.873-69.491 19.249-19.197 42.476-28.795 69.68-28.795 20.02 0 36.445 4.351 49.278 13.054V141.286c0-25.34 9.047-47.032 27.141-65.076 18.094-18.045 39.845-27.067 65.253-27.067 5.903 0 11.293.512 16.169 1.536 7.956-15.614 19.313-27.963 34.071-37.05C305.222 4.543 321.327 0 338.779 0z" fill="#fff"/></svg>