<svg xmlns="http://www.w3.org/2000/svg" viewBox="0 0 203.96 112"><defs><style>.cls-1{fill:#fff;fill-rule:evenodd}</style></defs><title>Ресурс 5</title><g id="Слой_2" data-name="Слой 2"><path class="cls-1" d="M130 58a20.39 20.39 0 0 0-13.52 5.21l-8-2.19-33-9.1-32.26-8.87-3.78-1a18.53 18.53 0 0 0-.63-2.12A20.15 20.15 0 0 0 .37 42.7a19.52 19.52 0 0 0 9.22 20.46 20.56 20.56 0 0 0 23.17-1.65 19.15 19.15 0 0 0 1.48-1.35l7.18 2L78 72.54l32.52 9.22a19.72 19.72 0 0 0 9.07 12.4 20.56 20.56 0 0 0 23.17-1.65 19.39 19.39 0 0 0 6-21.62A20.16 20.16 0 0 0 130 58zM11.69 51.53a7.46 7.46 0 0 0 4.9 3.64l10 2.82a13.5 13.5 0 1 1 4.6-18.24Q27 38.61 22.88 37.5L21 37c-5.15-1.31-9.09 2.88-10.07 7.6a10.4 10.4 0 0 0 .76 6.93zm126.39 36.39a13.62 13.62 0 0 1-15.48 1.2 13.48 13.48 0 0 1-5-5.35l7.52 2.13c1.5.43 3 1 4.54 1.26a6.51 6.51 0 0 0 5.94-1.85c3.18-3.18 4.16-8.86 2.68-13a6.47 6.47 0 0 0-4.21-4.31c-.94-.28-1.89-.51-2.83-.76l-7.34-2a13.3 13.3 0 0 1 5.6-1.24 13.5 13.5 0 0 1 8.59 23.92zm31.61-4.31L166 82l10.54 26.34L178 112l3-9 4.93 4.43 3.43 3.08c.25.22 1.29 1.48 1.64 1.48.12 0 .46-.45.54-.54l1.55-1.55 1.62-1.62c.26-.26 1.07-.81 1.18-1.18s-.49-.79-.8-1.14l-2.85-3.17L187 97l9-2zm-2.42-41.74a15 15 0 0 0 21.83-18 15 15 0 1 0-21.83 18zm2.29 14.66a29.33 29.33 0 0 1-21-17.1A28.44 28.44 0 0 0 160 52a30 30 0 0 0 33.38-2.38 27.69 27.69 0 0 0 8.81-31.24C198 7.23 186.81 0 175 0a30.27 30.27 0 0 0-4.51.34c-11.6 1.74-21.49 10.54-23.93 22.12A26.81 26.81 0 0 0 147 35c-.68 1.16-1.39 2.32-2.08 3.48C141 45 137.06 51.56 133 58c8.75 1.12 16.44 9.17 17 18l4.64-3.13C162.43 67.6 170.25 62.35 178 57a29.66 29.66 0 0 1-8.44-.47zm-13.18-31.36a19 19 0 1 1 30.7 18.49 19 19 0 0 1-30.7-18.49z" id="Слой_1-2" data-name="Слой 1"/></g></svg>