<svg xmlns="http://www.w3.org/2000/svg" width="32" height="47" viewBox="0 0 32 47"><defs><style>.cls-1{fill:#e79237;fill-rule:evenodd}</style></defs><path id="Фигура_846" data-name="Фигура 846" class="cls-1" d="M416 366h32v47h-32v-47zm31.462 42.191L456 404.7l-.153-.368-14.864-12.232a12.485 12.485 0 0 0 3.45-6.29 12.654 12.654 0 0 0-1.009-7.236q-2.3-5.523-7.269-7.029t-11.814 1.3l-14.347 5.872L425.928 417l7.956-3.256-5.833-14.019 6.338-2.594zm-26.853-26.347l6.391-2.615a7.027 7.027 0 0 1 5.406-.4 6.286 6.286 0 0 1 3.324 3.626 5.8 5.8 0 0 1 .09 4.842 7.088 7.088 0 0 1-4.012 3.411l-6.417 2.627z" transform="translate(-416 -366)"/></svg>