<svg width="150" height="152" viewBox="0 0 150 152" fill="none" xmlns="http://www.w3.org/2000/svg"><path d="M74.951 10.857c-2.612 0-4.855.933-6.729 2.8-1.873 1.865-2.81 4.099-2.81 6.7V76h-2.726V31.214c0-2.6-.937-4.834-2.81-6.7-1.874-1.867-4.117-2.8-6.729-2.8s-4.855.933-6.728 2.8c-1.874 1.866-2.811 4.1-2.811 6.7v66.5L30.49 80.326C28.334 77.442 25.438 76 21.804 76c-3.01 0-5.579 1.06-7.708 3.18-2.13 2.121-3.194 4.68-3.194 7.677 0 2.432.738 4.609 2.214 6.531l32.706 43.429c2.158 2.884 5.054 4.326 8.688 4.326h58.598c1.93 0 3.662-.622 5.195-1.866 1.533-1.244 2.499-2.828 2.896-4.75l6.473-34.353c.284-1.81.426-3.478.426-5.004V52.929c0-2.602-.937-4.835-2.811-6.701-1.873-1.866-4.116-2.8-6.728-2.8s-4.855.934-6.729 2.8c-1.874 1.866-2.81 4.1-2.81 6.7V76h-2.726V31.214c0-2.6-.937-4.834-2.811-6.7-1.873-1.867-4.116-2.8-6.728-2.8s-4.855.933-6.729 2.8c-1.873 1.866-2.81 4.1-2.81 6.7V76H84.49V20.357c0-2.601-.937-4.835-2.81-6.7-1.874-1.867-4.117-2.8-6.729-2.8zm0-10.857c3.861 0 7.424 1.004 10.689 3.011 3.265 2.008 5.778 4.736 7.538 8.185 1.079-.226 2.27-.339 3.577-.339 5.621 0 10.433 1.993 14.436 5.98 4.004 3.987 6.005 8.78 6.005 14.377v1.442c5.962-.339 11.087 1.47 15.374 5.429 4.287 3.958 6.43 8.906 6.43 14.844v42.24c0 2.263-.227 4.61-.681 7.041l-6.473 34.268c-.795 4.467-2.967 8.171-6.516 11.111-3.549 2.941-7.623 4.411-12.222 4.411H54.51c-3.407 0-6.658-.778-9.752-2.333-3.095-1.555-5.664-3.661-7.708-6.319L4.344 99.92C1.448 96.074 0 91.72 0 86.857c0-5.994 2.13-11.111 6.388-15.353 4.258-4.24 9.397-6.361 15.416-6.361 4.429 0 8.063.961 10.902 2.884V31.214c0-5.598 2.001-10.39 6.005-14.377 4.003-3.987 8.815-5.98 14.436-5.98 1.306 0 2.498.113 3.577.34 1.76-3.45 4.273-6.178 7.538-8.186C67.527 1.004 71.09 0 74.95 0z" fill="#56CCF2"/></svg>