<svg width="120" height="180" viewBox="0 0 120 180" fill="none" xmlns="http://www.w3.org/2000/svg"><path fill-rule="evenodd" clip-rule="evenodd" d="M13.106 89.812c0-25.929 20.97-46.597 46.434-46.597 1.873 0 3.37 0 5.243.376l-21.72 22.171 9.362 9.395 37.447-37.579L52.425 0l-9.361 9.395 20.97 20.668c-1.498 0-2.622-.376-4.12-.376C26.961 29.687 0 56.743 0 89.812c0 17.662 7.49 33.445 19.472 44.343l9.362-9.395c-9.736-8.643-15.728-21.044-15.728-34.948zm106.349 0c0-17.662-7.49-33.445-19.473-44.342l-9.361 9.394c9.736 8.643 15.727 21.044 15.727 34.948 0 25.929-20.97 46.597-46.434 46.597-1.872 0-3.37 0-5.242-.375l22.094-21.796-9.362-9.394-37.447 37.578L67.404 180l9.362-9.394-20.97-21.044c1.497 0 2.62.375 4.118.375 32.579 0 59.541-27.056 59.541-60.125z" fill="#56CCF2"/></svg>