<svg width="470" height="708" viewBox="0 0 470 708" fill="none" xmlns="http://www.w3.org/2000/svg"><path fill-rule="evenodd" clip-rule="evenodd" d="M51.567 353.261c0-101.988 82.508-183.282 182.696-183.282 7.367 0 13.261-.001 20.628 1.477l-85.456 87.208 36.834 36.951 147.336-147.807L206.269 0l-36.834 36.952 82.509 81.294c-5.894 0-10.314-1.478-16.208-1.478C106.081 116.768 0 223.19 0 353.261c0 69.47 29.467 131.55 76.614 174.414l36.834-36.952c-38.307-33.996-61.881-82.773-61.881-137.462zm418.433 0c0-69.47-29.467-131.55-76.615-174.414l-36.833 36.952c38.307 33.996 61.881 82.773 61.881 137.462 0 101.987-82.509 183.282-182.697 183.282-7.366 0-13.259.001-20.626-1.478l86.927-85.729-36.834-36.952-147.335 147.808L265.203 708l36.834-36.952-82.507-82.772c5.893 0 10.313 1.478 16.206 1.478C363.918 589.754 470 483.332 470 353.261z" fill="#fff"/></svg>